<?xml version="1.0" standalone="no"?>
<!DOCTYPE svg PUBLIC "-//W3C//DTD SVG 20010904//EN"
 "http://www.w3.org/TR/2001/REC-SVG-20010904/DTD/svg10.dtd">
<svg version="1.0" xmlns="http://www.w3.org/2000/svg"
 width="600.000000pt" height="600.000000pt" viewBox="0 0 600.000000 600.000000"
 preserveAspectRatio="xMidYMid meet">
<metadata>
Created by potrace 1.14, written by Peter Selinger 2001-2017
</metadata>
<g transform="translate(0.000000,600.000000) scale(0.100000,-0.100000)"
fill="#000000" stroke="none">
<path d="M1498 5993 c827 -2 2177 -2 3000 0 823 1 147 2 -1503 2 -1650 0
-2324 -1 -1497 -2z"/>
<path d="M1710 3850 l0 -750 563 -2 562 -3 3 -222 2 -223 -135 0 -135 0 0 -25
0 -25 430 0 430 0 0 25 0 25 -135 0 -135 0 0 225 0 225 570 0 570 0 -2 748 -3
747 -1292 3 -1293 2 0 -750z m2540 0 l0 -710 -1247 2 -1248 3 -3 695 c-1 382
0 701 3 708 3 9 263 12 1250 12 l1245 0 0 -710z m-1130 -980 l0 -220 -120 0
-120 0 0 220 0 220 120 0 120 0 0 -220z"/>
<path d="M3066 4243 c-34 -105 -196 -645 -196 -654 0 -5 9 -9 20 -9 25 0 20
-15 136 369 53 174 99 322 101 329 3 7 -4 12 -20 12 -21 0 -28 -7 -41 -47z"/>
<path d="M2633 4024 c-225 -148 -224 -136 -26 -264 80 -52 159 -103 175 -113
l28 -19 0 34 c0 32 -6 37 -140 121 -77 49 -142 93 -145 97 -3 5 60 50 140 101
140 88 145 93 145 125 0 19 -1 34 -2 33 -2 0 -81 -52 -175 -115z"/>
<path d="M3180 4107 c0 -31 6 -36 151 -127 134 -84 148 -96 132 -107 -9 -8
-77 -50 -150 -96 -127 -79 -132 -83 -133 -116 0 -32 1 -33 23 -19 293 187 327
212 327 243 0 27 -10 36 -117 105 -64 41 -142 92 -175 113 l-58 37 0 -33z"/>
<path d="M3270 2220 c0 -67 -1 -70 -19 -60 -29 15 -83 12 -109 -6 -36 -25 -52
-68 -52 -138 0 -59 3 -69 31 -101 25 -28 38 -35 69 -35 23 0 48 8 64 21 l26
20 0 -20 c0 -17 6 -21 35 -21 l35 0 0 205 0 205 -40 0 -40 0 0 -70z m-20 -130
c47 -47 12 -161 -42 -141 -51 18 -61 114 -15 146 28 19 33 19 57 -5z"/>
<path d="M4680 2220 c0 -67 -1 -70 -19 -60 -31 16 -86 12 -113 -10 -38 -29
-51 -71 -46 -145 3 -55 8 -69 33 -95 36 -38 96 -42 132 -8 l23 21 0 -21 c0
-18 6 -22 35 -22 l35 0 0 205 0 205 -40 0 -40 0 0 -70z m-22 -126 c17 -12 22
-25 22 -60 0 -60 -14 -84 -49 -84 -39 0 -54 22 -54 77 0 36 5 50 22 65 28 22
31 22 59 2z"/>
<path d="M4831 2276 c-8 -9 -11 -26 -7 -40 13 -53 79 -38 74 17 -2 26 -8 33
-29 35 -14 2 -31 -4 -38 -12z"/>
<path d="M1304 2271 c-37 -16 -64 -60 -64 -106 0 -54 23 -84 89 -115 36 -16
53 -31 58 -48 11 -45 -39 -64 -106 -41 -37 13 -36 14 -44 -28 -6 -28 -3 -32
25 -42 75 -26 166 -2 193 50 35 67 9 132 -68 170 -45 23 -77 48 -77 60 0 32
70 50 110 29 17 -9 21 -6 28 22 5 18 5 37 1 42 -12 13 -119 18 -145 7z"/>
<path d="M2582 2259 c-135 -68 -132 -308 5 -365 34 -15 102 -18 141 -8 19 5
23 12 20 38 -3 30 -4 31 -50 28 -63 -5 -101 17 -122 68 -9 22 -16 49 -16 60 0
11 7 38 16 60 21 51 60 73 122 68 43 -3 46 -1 53 26 5 17 6 32 3 35 -2 3 -33
7 -67 9 -49 2 -71 -2 -105 -19z"/>
<path d="M3807 2253 c-4 -14 -16 -218 -22 -358 0 -5 16 -10 35 -10 l35 0 7
143 c4 79 9 146 12 150 3 3 6 -6 6 -19 0 -22 25 -134 51 -232 9 -35 13 -38 42
-35 l31 3 40 150 41 150 5 -155 5 -155 38 -3 38 -3 -7 143 c-3 79 -8 154 -9
168 -1 14 -3 38 -4 53 -1 27 -2 28 -53 25 l-53 -3 -27 -100 c-14 -55 -29 -113
-33 -130 -6 -25 -13 -9 -39 100 l-31 130 -52 3 c-42 2 -52 0 -56 -15z"/>
<path d="M1585 2159 c-37 -19 -59 -61 -63 -123 -8 -100 41 -156 135 -156 66 0
83 9 83 42 0 30 0 30 -45 24 -54 -9 -104 14 -105 47 0 4 38 7 85 7 79 0 85 1
85 21 0 46 -24 110 -48 129 -27 22 -92 26 -127 9z m76 -49 c10 -6 19 -20 19
-30 0 -17 -7 -20 -45 -20 -49 0 -55 10 -25 40 23 23 25 23 51 10z"/>
<path d="M1831 2159 c-15 -6 -21 -14 -17 -25 3 -9 6 -22 6 -30 0 -12 4 -12 20
-4 31 17 94 9 98 -12 3 -14 -3 -18 -28 -18 -94 0 -153 -96 -99 -164 24 -31 81
-36 117 -10 20 14 22 14 22 0 0 -12 10 -16 35 -16 l35 0 0 100 c0 109 -14 161
-48 179 -25 13 -108 13 -141 0z m109 -168 c0 -55 -62 -72 -68 -18 -3 21 2 29
20 36 39 16 48 13 48 -18z"/>
<path d="M2080 2023 l0 -143 40 0 39 0 3 101 c3 84 6 104 21 113 12 8 22 8 35
0 14 -9 18 -30 22 -110 l5 -99 38 -3 39 -3 -4 120 c-3 110 -5 121 -27 145 -31
33 -89 36 -117 5 -17 -19 -19 -19 -24 -3 -4 11 -18 17 -38 18 l-32 1 0 -142z"/>
<path d="M2835 2148 c-33 -26 -55 -75 -55 -123 0 -85 53 -145 127 -145 87 0
133 53 133 152 0 89 -45 137 -131 138 -33 0 -54 -6 -74 -22z m107 -55 c24 -22
25 -109 1 -135 -37 -41 -83 -4 -83 67 0 71 41 105 82 68z"/>
<path d="M3459 2155 c-36 -19 -59 -72 -59 -135 0 -92 47 -140 137 -140 66 0
84 9 81 39 -3 23 -7 26 -38 24 -46 -3 -75 4 -94 23 -28 27 -18 33 67 36 l82 3
-3 44 c-3 51 -24 96 -51 111 -28 14 -91 12 -122 -5z m82 -45 c10 -6 19 -20 19
-30 0 -17 -7 -20 -45 -20 -49 0 -55 10 -25 40 23 23 25 23 51 10z"/>
<path d="M4270 2142 c-34 -34 -54 -102 -45 -151 15 -82 66 -116 158 -108 32 3
61 7 63 10 3 3 2 17 -2 31 -6 25 -9 26 -48 21 -46 -6 -89 11 -94 38 -3 15 6
17 77 17 l81 0 0 41 c0 85 -41 129 -121 129 -31 0 -47 -7 -69 -28z m118 -66
c3 -13 -5 -16 -42 -16 -52 0 -61 18 -24 44 19 13 25 14 43 2 11 -7 21 -21 23
-30z"/>
<path d="M4823 2154 c-2 -7 -3 -70 -1 -140 l3 -129 38 -3 37 -3 0 143 0 143
-36 0 c-20 0 -39 -5 -41 -11z"/>
<path d="M4991 2159 c-15 -6 -21 -14 -17 -25 3 -9 6 -19 6 -23 0 -5 26 -8 57
-7 47 1 58 -2 61 -16 3 -14 -3 -18 -23 -18 -40 0 -92 -25 -110 -54 -21 -31
-15 -88 11 -117 21 -23 81 -25 112 -3 20 14 22 14 22 0 0 -12 10 -16 35 -16
l35 0 0 100 c0 109 -14 161 -48 179 -25 13 -108 13 -141 0z m109 -168 c0 -55
-62 -72 -68 -18 -3 21 2 29 20 36 39 16 48 13 48 -18z"/>
</g>
</svg>
